<svg version="1.2" xmlns="http://www.w3.org/2000/svg" viewBox="0 0 49 40" width="51" height="42">
	<title>New Project</title>
	<style>
		.s0 { fill: #4093e6 } 
		.s1 { fill: none;stroke: #4093e6;stroke-width: 2 } 
	</style>
	<path id="RE- ENTRY" class="s0" aria-label="RE-
ENTRY"  d="m15.7 17h-1.6v-9.1h3.3q1.1 0 1.8 0.4 0.7 0.3 1.1 1 0.3 0.6 0.3 1.4 0 0.8-0.4 1.5-0.5 0.7-1.4 1l1.9 3.8h-1.9l-1.7-3.6h-1.4zm0-7.7v2.9h1.6q0.8 0 1.2-0.4 0.4-0.4 0.4-1.1 0-0.6-0.4-1-0.4-0.4-1.2-0.4zm12.4 7.7h-6v-9.1h6v1.4h-4.3v2.4h3.9v1.3h-3.9v2.7h4.3zm6.8-3.1h-5.5v-1.4h5.5zm-24 19.1h-5.9v-9.1h5.9v1.3h-4.2v2.5h3.9v1.3h-3.9v2.6h4.2zm3.3 0h-1.7v-9.1h1.7l4.3 6.5v-6.5h1.6v9.1h-1.6l-4.3-6.4zm11.5 0h-1.7v-7.7h-2.6v-1.4h6.9v1.4h-2.6zm5.5 0h-1.6v-9.1h3.3q1.1 0 1.8 0.4 0.7 0.3 1.1 1 0.3 0.6 0.3 1.4 0 0.8-0.4 1.5-0.4 0.7-1.4 1l1.9 3.8h-1.9l-1.7-3.6h-1.4zm0-7.7v2.9h1.6q0.8 0 1.2-0.4 0.4-0.4 0.4-1.1 0-0.6-0.4-1-0.3-0.4-1.2-0.4zm10.1 7.7h-1.6v-3.2l-3.1-5.9h1.9l2 4.2 2-4.2h1.9l-3.1 5.9z"/>
	<rect id="Shape 1" class="s1" x="1" y="1" width="47" height="38" rx="8"></rect>
</svg>
