<svg version="1.2" xmlns="http://www.w3.org/2000/svg" viewBox="0 0 450 380" width="45" height="38">
	<title>New Project</title>
	<style>
		.s0 { fill: #4093e6 } 
		.s1 { fill: none;stroke: #4093e6;stroke-width: 20 } 
	</style>
	<path id="RE- ENTRY" class="s0" aria-label="RE-
ENTRY"  d="m140.5 159h-16v-87.5h32.1q10.5 0 17.3 3.6 6.8 3.5 10.2 9.7 3.4 6 3.4 13.3 0 8-4.3 14.7-4.1 6.6-13 9.6l18.2 36.6h-18.4l-16.3-34.5h-13.2zm0-74.1v27.8h15.1q8 0 11.8-3.8 3.7-3.9 3.7-10.3 0-6.2-3.7-10-3.7-3.7-11.9-3.7zm119 74.1h-57.1v-87.5h57.1v12.9h-41.1v24h37.4v12.5h-37.4v25.2h41.1zm65.8-29.5h-52.4v-13.3h52.4zm-230.3 179.4h-57.1v-87.5h57.1v12.9h-41.1v24h37.4v12.5h-37.4v25.3h41.1zm31.1 0h-16v-87.5h16l41.2 61.6v-61.6h16v87.5h-16l-41.2-61.5zm110.5 0h-16v-74.7h-25.5v-12.8h67.2v12.8h-25.7zm53.5 0h-16v-87.5h32.2q10.5 0 17.2 3.7 6.9 3.5 10.3 9.6 3.3 6 3.3 13.4 0 8-4.2 14.6-4.1 6.6-13 9.6l18.1 36.6h-18.4l-16.2-34.5h-13.3zm0-74.1v27.9h15.2q8 0 11.7-3.9 3.8-3.9 3.8-10.2 0-6.3-3.8-10-3.6-3.8-11.9-3.8zm97.5 74.1h-16v-31.1l-29.3-56.4h18.1l19.4 40.4 19.2-40.4h17.9l-29.3 56.4z"/>
	<rect id="Shape 1" class="s1" x="10" y="10" width="430" height="360" rx="100"></rect>
</svg>
